<?xml version="1.0" encoding="UTF-8" standalone="no"?>
<!DOCTYPE svg PUBLIC "-//W3C//DTD SVG 1.1//EN" "http://www.w3.org/Graphics/SVG/1.1/DTD/svg11.dtd">
<svg width="100%" height="100%" viewBox="0 0 1544 1557" version="1.1" xmlns="http://www.w3.org/2000/svg" xmlns:xlink="http://www.w3.org/1999/xlink" xml:space="preserve" xmlns:serif="http://www.serif.com/" style="fill-rule:evenodd;clip-rule:evenodd;stroke-linejoin:round;stroke-miterlimit:2;">
    <g id="Çalışma-Yüzeyi1" serif:id="Çalışma Yüzeyi1" transform="matrix(0.942038,0,0,0.94939,-198.769982,-1125.027439)">
        <rect x="211" y="1185" width="1639" height="1640" style="fill:none;"/>
        <g transform="matrix(1.061528,0,0,1.053308,-73.489637,-93.715478)">
            <path d="M1747.015,1641.004L1747.015,2343.011C1747.015,2536.736 1589.736,2694.015 1396.011,2694.015L694.004,2694.015C500.28,2694.015 343,2536.736 343,2343.011L343,1641.004C343,1447.28 500.28,1290 694.004,1290L1396.011,1290C1589.736,1290 1747.015,1447.28 1747.015,1641.004Z"/>
        </g>
        <g transform="matrix(1.631114,0,0,1.457752,-335.10011,-3582.134037)">
            <path d="M769.298,4207.374C721.136,4207.374 684.307,4195.511 658.809,4171.784C633.312,4148.058 620.563,4114.592 620.563,4071.388C620.563,4050.14 623.042,4029.955 628,4010.832L741.676,3478.574L898.91,3457.326L847.915,3696.364C867.746,3684.324 884.036,3676.356 896.785,3672.46C909.534,3668.565 922.282,3666.617 935.031,3666.617C1018.606,3666.617 1060.393,3727.173 1060.393,3848.286C1060.393,3897.156 1051.009,3949.39 1032.24,4004.989C1013.471,4060.587 982.307,4108.218 938.749,4147.88C895.191,4187.543 838.708,4207.374 769.298,4207.374ZM828.792,4104.322C850.748,4104.322 871.288,4090.688 890.411,4063.42C909.534,4036.152 924.761,4002.156 936.093,3961.431C947.426,3920.706 953.092,3881.574 953.092,3844.037C953.092,3815.706 948.134,3791.625 938.218,3771.794C928.303,3751.963 914.492,3742.047 896.785,3742.047C886.161,3742.047 874.298,3743.641 861.195,3746.828C848.092,3750.015 839.062,3754.796 834.104,3761.17L775.672,4031.017C773.548,4039.517 772.485,4047.662 772.485,4055.452C772.485,4088.032 791.254,4104.322 828.792,4104.322Z" style="fill:url(#_Linear1);fill-rule:nonzero;"/>
        </g>
    </g>
    <defs>
        <linearGradient id="_Linear1" x1="0" y1="0" x2="1" y2="0" gradientUnits="userSpaceOnUse" gradientTransform="matrix(618.910563,412.579617,-371.606658,687.15099,315.622407,3454.200252)"><stop offset="0" style="stop-color:rgb(47,47,47);stop-opacity:1"/><stop offset="1" style="stop-color:rgb(135,0,0);stop-opacity:1"/></linearGradient>
    </defs>
</svg>
